<svg xmlns="http://www.w3.org/2000/svg" width="1200" height="675" viewBox="0 0 1200 675" role="img" aria-label="Streamline screenshot placeholder 3">
  <defs>
    <linearGradient id="bg3" x1="0" y1="0" x2="1" y2="1">
      <stop offset="0" stop-color="#262640"/>
      <stop offset="1" stop-color="#17172B"/>
    </linearGradient>
  </defs>
  <rect width="1200" height="675" fill="url(#bg3)"/>
  <rect x="90" y="70" width="1020" height="470" rx="18" fill="#FFFFFF"/>
  <path d="M90 88q0-18 18-18h984q18 0 18 18v34H90Z" fill="#1F1F36"/>
  <circle cx="124" cy="96" r="7" fill="#FF5F57"/>
  <circle cx="148" cy="96" r="7" fill="#FEBC2E"/>
  <circle cx="172" cy="96" r="7" fill="#28C840"/>
  <rect x="204" y="84" width="480" height="24" rx="12" fill="#FFFFFF" opacity="0.85"/>
  <rect x="220" y="92" width="200" height="8" rx="4" fill="#B9BFCC"/>
  <!-- sidebar -->
  <rect x="116" y="140" width="200" height="372" rx="10" fill="#F4F6FA"/>
  <rect x="132" y="158" width="120" height="16" rx="8" fill="#F1D053"/>
  <rect x="132" y="192" width="168" height="12" rx="6" fill="#D6DCE6"/>
  <rect x="132" y="216" width="140" height="12" rx="6" fill="#D6DCE6"/>
  <rect x="132" y="240" width="156" height="12" rx="6" fill="#D6DCE6"/>
  <rect x="132" y="264" width="128" height="12" rx="6" fill="#D6DCE6"/>
  <rect x="132" y="288" width="148" height="12" rx="6" fill="#D6DCE6"/>
  <rect x="132" y="312" width="136" height="12" rx="6" fill="#D6DCE6"/>

  <rect x="352" y="150" width="300" height="22" rx="8" fill="#333B4A"/>
  <rect x="352" y="184" width="200" height="10" rx="5" fill="#D6DCE6"/>
  <rect x="352" y="222" width="704" height="70" rx="10" fill="#FFFFFF" stroke="#E4E8EF"/>
  <rect x="372" y="244" width="140" height="12" rx="6" fill="#F1D053"/>
  <rect x="372" y="266" width="640" height="8" rx="4" fill="#E8ECF2"/>
  <rect x="352" y="308" width="704" height="70" rx="10" fill="#FFFFFF" stroke="#E4E8EF"/>
  <rect x="372" y="330" width="170" height="12" rx="6" fill="#FF982E"/>
  <rect x="372" y="352" width="600" height="8" rx="4" fill="#E8ECF2"/>
  <rect x="352" y="394" width="704" height="70" rx="10" fill="#FFFFFF" stroke="#E4E8EF"/>
  <rect x="372" y="416" width="150" height="12" rx="6" fill="#89E1C9"/>
  <rect x="372" y="438" width="620" height="8" rx="4" fill="#E8ECF2"/>
  <rect x="352" y="480" width="180" height="44" rx="22" fill="#F1D053"/>
  <rect x="384" y="495" width="120" height="14" rx="7" fill="#FFFFFF" opacity="0.9"/>

  <text x="600" y="590" text-anchor="middle" font-family="'Consolas','Courier New',monospace" font-size="26" font-weight="600" fill="#FFFFFF" opacity="0.95">Streamline</text>
  <text x="600" y="622" text-anchor="middle" font-family="'Consolas','Courier New',monospace" font-size="20" fill="#FFFFFF" opacity="0.75">screenshot placeholder 3 of 4</text>
</svg>
